<?xml version="1.0" encoding="utf-8"?>
<!-- Generator: Adobe Illustrator 19.0.0, SVG Export Plug-In . SVG Version: 6.00 Build 0)  -->
<svg version="1.1" id="Capa_1" xmlns="http://www.w3.org/2000/svg" xmlns:xlink="http://www.w3.org/1999/xlink" x="0px" y="0px"
	 viewBox="0 0 1190.6 841.9" style="enable-background:new 0 0 1190.6 841.9;" xml:space="preserve">
<style type="text/css">
	.st0{fill:#2EA83D;}
	.st1{fill:#4A4A49;}
</style>
<g id="XMLID_46_">
	<path id="XMLID_67_" class="st0" d="M522.7,341.6l-10.8,4.4c-0.2,0.1-0.4,0.1-0.6,0.2l-15.9,6.6l-23.3,9.5l0,0.1l-6.8,2.8
		c-1.3,0.5-1.9,3.1-1.9,3.1c-0.8,7.4-5.9,13.5-12.8,15.6c0,0-1.9,1.1-2.2,2.6l-8.4,50.9c-0.2,1.3,1,2.7,1,2.7
		c2.5,2.5,4.1,5.9,4.1,9.7c0,7.6-6.2,13.8-13.8,13.8c-7.6,0-13.8-6.2-13.8-13.8c0-5.4,3.1-10,7.6-12.3c0,0,1.8-1.1,2-2.4l8.4-50.6
		c0.3-1.7-1.3-3.5-1.3-3.5c-4.2-3.1-6.9-7.9-7.4-13.3c0,0-0.4-2.6-2.7-3.7l-71.6-32.3c-2-0.9-4.8-0.1-4.8-0.1l0,0
		c-1,0.3-2.1,0.5-3.3,0.5c-6.2,0-11.3-5.1-11.3-11.3c0-6.2,5.1-11.3,11.3-11.3c4.6,0,8.5,2.8,10.3,6.7l0,0c0,0,1.2,2.6,3.1,3.5
		l71.3,32.2c2.6,1,4.7-0.2,4.7-0.2c3.1-2.4,7-3.8,11.2-3.8c4.5,0,8.6,1.6,11.8,4.3c0,0,2.1,1.3,3.4,0.7l31.4-13
		c-25.3-48.7-76.2-81.9-134.9-81.9c-84,0-152,68.1-152,152c0,2.9,0.1,5.8,0.3,8.7l-17.1,12.9c-0.2,0.1-0.3,0.3-0.5,0.5l-1.6,1.2
		c-6.6,5,1.2,15.4,7.8,10.4l1.4-1.1c0.3-0.2,0.6-0.3,0.8-0.5l59.7-45c1.4-1,1.7-3.7,1.7-3.7s0-0.5,0-0.7c0-4.3,1.8-8.2,4.7-11
		c0,0,2.1-2.8,1.9-4.4l-4.2-34.2c-0.4-3.6,2.1-6.9,5.7-7.3c3.7-0.4,6.9,2.1,7.3,5.7l4.2,33.9c0.2,2,2.3,3.7,2.3,3.7
		c2.7,1.4,4.9,3.5,6.4,6.2v0c0,0,1.3,1.6,3.4,1.7l71.5,4c1.7,0.1,2.9-1.2,2.9-1.2c3-4.9,8.3-8.1,14.4-8.1c9.3,0,16.9,7.6,16.9,16.9
		s-7.6,16.9-16.9,16.9c-1.3,0-2.5-0.2-3.7-0.5c0,0-1.8-0.1-2.6,0.9L343,449.1c-4.6,5.3-4.9,14.6,3.6,18.3l37,16.3
		c2.1,0.9,5.7,0,5.7,0l-0.1,0.1c1.4-0.6,2.9-0.9,4.5-0.9c6.9,0,12.5,5.6,12.5,12.5c0,6.9-5.6,12.5-12.5,12.5
		c-5.1,0-9.4-3.1-11.4-7.5l0,0.1c0,0-2.2-3.9-6.6-5.9l-36.2-16c-3.8-1.7-8.4,0.4-8.4,0.4c-2.8,1.7-6,2.7-9.5,2.7
		c-10.1,0-18.2-8.2-18.2-18.2c0-2.3,0.4-4.4,1.2-6.4c0,0,1.2-4.9-0.9-7.9l-28.4-40.9c-0.4-0.6-1.8-0.7-1.8-0.7
		c-0.4,0-0.8,0.1-1.1,0.1c-2.1,0-4-0.4-5.8-1.2c0,0-1.5-0.2-2.4,0.5l-54.6,41.1c6.7,25.9,20.5,49.4,38.6,68v59.9
		c0,2.8,1.1,5.1,3.4,6.5c1.2,0.8,2.7,1.1,4.1,1.1c1.3,0,2.5-0.3,3.7-0.9l56.5-26.3c11.7,2.9,28.3,5.5,40.9,5.5
		c84,0,152-68.1,152-152c0-15.9-2.5-31.3-7-45.7l14.4-6c0.3-0.1,0.5-0.3,0.8-0.4l10.5-4.3C535.3,350.5,530.4,338.5,522.7,341.6
		 M288.3,404l26.4,38.1c3.7,5.3,14.3,3.1,18-1.3l27.4-31.7c2.1-2.5,0.8-4.8-3.8-5l-65-3.7C287.9,400.2,286.6,401.4,288.3,404"/>
	<path id="XMLID_60_" class="st1" d="M633,408.5l-27.2,0v0l-40.2,0l-0.1-90.7c0-7.9-12.4-7.8-12.4,0l0.1,96.9c0,4,1.8,6.2,6.4,6.2
		l3.5,0l3,0c0,0,0,0,0.1,0l26.3,0l2.3,0v0l38.3,0C640.8,420.9,640.8,408.5,633,408.5 M758.6,371.2L758.6,371.2l0-53.4
		c0-7.9-12.4-7.8-12.4,0v54.7c0,48.3-73.8,48.3-73.9,0l0-54.7c0-7.9-12.4-7.8-12.4,0v54.8c0,32.1,25,48.3,49.4,48.3
		c24.4,0,49.3-16.3,49.3-48.4L758.6,371.2z M872.1,365.8c0,21.1-12.5,43.9-37.6,44l-32.1,0l-0.1-87.1l32.1,0
		C859.6,322.7,872.1,344.8,872.1,365.8 M884.3,365.8c0-26.6-16.6-53.8-49.9-53.8l-36.4,0c-4.2,0-7.7,3.2-7.7,7l0.1,94.4
		c0,3.8,3.5,7.2,7.7,7.2l36.4,0C867.8,420.6,884.4,392.4,884.3,365.8 M976.5,380.6l-19.2,0v0l-30.5,0l0.6-1.3l0,0l24.2-47.6
		l24.2,47.6l0,0L976.5,380.6z M1006.4,412.1l-24.5-48.2l0,0l-24.8-48.7c-1.2-2.4-3.4-3.3-5.5-3.2c-2.1-0.1-4.2,0.8-5.5,3.2
		l-24.8,48.7l0,0l-24.5,48.2c-3.6,7,7.5,12.6,11,5.6l12.6-24.7l25.8,0v0l36.5,0l12.6,24.8C998.9,424.7,1009.9,419.1,1006.4,412.1"/>
	<path id="XMLID_48_" class="st1" d="M1000.3,508.5c4.6-2.7,6.9-6.6,6.9-11.8c0-2-0.4-3.9-1.2-5.5c-0.8-1.6-1.9-3-3.1-4
		c-1.2-1-2.9-2-4.9-2.9c-2-0.9-4-1.5-5.7-2c-1.8-0.5-4-1-6.6-1.5c-1.8-0.4-3.2-0.6-4.1-0.8c-0.9-0.2-2.1-0.5-3.6-0.9
		c-1.5-0.4-2.7-0.8-3.4-1.2c-0.8-0.4-1.6-0.9-2.4-1.5c-0.9-0.6-1.5-1.2-1.8-1.9c-0.4-0.7-0.5-1.5-0.5-2.5c0-2.3,1.2-4.1,3.5-5.2
		c2.3-1.1,5.2-1.7,8.8-1.7c3.9,0,9.9,1.1,17.8,3.2c1.5,0.5,2.7,0.3,3.5-0.6c0.8-0.9,1.2-1.9,1.2-3c0-1.7-1.2-3.1-3.7-4.3
		c-4.8-2.2-10.9-3.3-18.4-3.3c-7.5,0-13.3,1.3-17.6,4c-4.2,2.6-6.3,6.4-6.3,11.2c0,2,0.4,3.8,1.2,5.4c0.8,1.6,1.8,2.9,2.9,4
		c1.1,1.1,2.7,2,4.6,2.9c1.9,0.9,3.7,1.5,5.3,2c1.7,0.5,3.6,1,5.8,1.5c0.5,0.1,1.3,0.3,2.3,0.5c1.6,0.4,2.8,0.6,3.7,0.8
		c0.8,0.2,1.9,0.5,3.3,0.9c1.4,0.4,2.4,0.8,3.1,1.1c0.7,0.4,1.5,0.8,2.3,1.3c0.8,0.5,1.4,1.2,1.7,1.9c0.4,0.7,0.6,1.5,0.6,2.4
		c0,2.3-1.3,4-3.9,5.2c-2.6,1.2-5.7,1.7-9.4,1.7c-1,0-1.9-0.1-2.9-0.2c-1-0.1-1.9-0.2-2.8-0.3c-0.8-0.1-1.9-0.3-3.2-0.5
		c-1.3-0.2-2.2-0.4-2.9-0.6c-0.7-0.1-1.8-0.4-3.3-0.7c-1.6-0.3-2.6-0.5-3.3-0.7c-1.4-0.3-2.5,0-3.5,0.9c-0.9,0.9-1.4,1.9-1.4,3.3
		c0,1.8,1.1,3.2,3.3,4.2c2,1,5,1.7,8.8,2.3c3.8,0.5,7.4,0.8,10.9,0.8C989.5,512.5,995.7,511.2,1000.3,508.5 M929.1,506.7v-19.8
		c0-5.5,1.5-10.1,4.5-13.8c3-3.7,6.9-6,11.7-6.8c3-0.6,4.6-2.3,4.6-5.3c0-1.2-0.4-2.1-1.2-2.9c-0.8-0.8-1.9-1.2-3.3-1.1
		c-3.8,0.1-7.4,1.6-10.5,4.5c-3.2,2.9-5.2,6.6-6.2,11.1h-0.1v-10.8c0-1.2-0.5-2.3-1.4-3.2c-0.9-0.9-2.1-1.3-3.4-1.3
		c-1.4,0-2.5,0.5-3.5,1.5c-1,1-1.5,2.1-1.5,3.4v44.6c0,1.4,0.5,2.7,1.5,3.7c1,1,2.2,1.5,3.6,1.5c1.4,0,2.6-0.5,3.7-1.5
		C928.6,509.3,929.1,508.1,929.1,506.7 M866,469.5c3.2-2.6,7.3-3.8,12.3-3.8c4.6,0,8.4,1.2,11.4,3.7c3,2.5,5.1,5.9,6.2,10.1h-36
		C860.8,475.4,862.9,472.1,866,469.5 M897.6,464.6c-5.4-5.1-11.8-7.6-19.3-7.6c-8.5,0-15.5,2.7-20.9,8c-5.4,5.3-8.1,11.8-8.1,19.5
		c0,7.9,2.8,14.5,8.4,19.8c5.6,5.3,12.4,7.9,20.6,7.9c4.8,0,9.3-0.9,13.4-2.8c4.1-1.9,7.4-4.3,9.8-7.4c1-1.2,1.4-2.5,1.4-3.9
		c0-1.3-0.4-2.4-1.3-3.2c-0.9-0.8-2-1.2-3.4-1.2c-1.4,0-2.9,1-4.3,2.9c-3.8,4.6-8.8,6.9-15.1,6.9c-4.9,0-9.1-1.4-12.6-4.2
		c-3.5-2.8-5.6-6.5-6.5-11.2h39.1c1.9,0,3.5-0.6,4.8-1.8c1.3-1.2,2-2.7,2-4.6C905.7,475.3,903,469.6,897.6,464.6 M794.7,506.6v-22.7
		c0-4.8,1.6-9,4.7-12.5c3.1-3.5,6.8-5.2,11.2-5.2c4.6,0,8.4,1.7,11.4,5c3,3.3,4.5,7.4,4.5,12.2v23.2c0,1.5,0.5,2.8,1.5,3.7
		c1,1,2.2,1.5,3.7,1.5c1.5,0,2.7-0.5,3.7-1.5c1-1,1.5-2.2,1.5-3.7v-24.2c0-7.2-2.2-13.2-6.5-18.1c-4.3-4.9-10-7.3-17-7.3
		c-4.3,0-8.1,1.3-11.6,3.8c-3.5,2.6-5.9,6-7.4,10.4h-0.1v-9.5c0-1.3-0.5-2.3-1.4-3c-0.9-0.7-2.1-1.1-3.5-1.1c-1.5,0-2.7,0.4-3.6,1.3
		c-0.9,0.9-1.3,2-1.3,3.5v44.2c0,1.5,0.5,2.8,1.5,3.7c1,1,2.2,1.5,3.7,1.5s2.7-0.5,3.7-1.5C794.2,509.3,794.7,508.1,794.7,506.6
		 M762.5,503.5c-3.7,0-6.5-1.1-8.4-3.4c-1.9-2.3-2.8-5.2-2.8-8.7v-25h16.2c1.2,0,2.2-0.4,3-1.2c0.8-0.8,1.2-1.8,1.2-2.9
		c0-1.1-0.4-2.1-1.2-2.9c-0.8-0.8-1.8-1.2-3-1.2h-16.2v-9.9c0-1.4-0.5-2.7-1.5-3.7c-1-1-2.2-1.5-3.6-1.5c-1.4,0-2.6,0.5-3.7,1.5
		c-1,1-1.5,2.2-1.5,3.7v9.9h-7.4c-1.2,0-2.1,0.4-2.9,1.2c-0.8,0.8-1.2,1.8-1.2,2.9c0,1.1,0.4,2.1,1.2,2.9c0.8,0.8,1.8,1.2,2.9,1.2
		h7.4v25.8c0,5.7,1.8,10.4,5.4,14.1c3.6,3.8,8.6,5.6,14.9,5.6c2.1,0,4.4-0.4,6.8-1c1.2-0.4,2.1-0.9,2.8-1.7c0.7-0.8,1.1-1.7,1.1-2.8
		c0-1.3-0.5-2.4-1.4-3.2c-0.9-0.8-2.2-1.1-3.7-0.7C764.7,503.2,763.2,503.5,762.5,503.5 M705.5,506.7v-19.8c0-5.5,1.5-10.1,4.5-13.8
		c3-3.7,6.9-6,11.7-6.8c3-0.6,4.6-2.3,4.6-5.3c0-1.2-0.4-2.1-1.2-2.9c-0.8-0.8-1.9-1.2-3.3-1.1c-3.9,0.1-7.4,1.6-10.5,4.5
		c-3.2,2.9-5.2,6.6-6.2,11.1h-0.1v-10.8c0-1.2-0.5-2.3-1.4-3.2c-0.9-0.9-2.1-1.3-3.4-1.3c-1.4,0-2.6,0.5-3.5,1.5s-1.5,2.1-1.5,3.4
		v44.6c0,1.4,0.5,2.7,1.5,3.7c1,1,2.2,1.5,3.6,1.5c1.4,0,2.6-0.5,3.7-1.5C705,509.3,705.5,508.1,705.5,506.7 M629.8,484.5
		c0-5.1,1.8-9.4,5.4-13c3.6-3.6,8-5.4,13.1-5.4c5.1,0,9.5,1.8,13.1,5.4c3.6,3.6,5.4,7.9,5.4,13s-1.8,9.5-5.4,13.1
		c-3.6,3.6-8,5.4-13.1,5.4c-5.1,0-9.5-1.8-13.1-5.4C631.6,494,629.8,489.6,629.8,484.5 M659.5,508.4c3.9-2.5,6.5-5.6,8-9.6l0.2,9.6
		c0.1,1,0.6,1.7,1.5,2.3c0.8,0.6,1.9,0.9,3.3,0.9c1.5,0,2.7-0.5,3.6-1.5c0.8-1,1.3-2.2,1.3-3.7v-44.1c0-1.4-0.5-2.7-1.4-3.7
		c-0.9-1-2.1-1.5-3.4-1.5c-1.3,0-2.3,0.3-3.2,0.9c-0.9,0.6-1.4,1.4-1.5,2.4l-0.2,9.6c-1.5-3.9-4.2-7.1-8-9.6
		c-3.8-2.5-8.1-3.7-12.8-3.7c-7.2,0-13.6,2.6-19,7.9s-8.1,11.8-8.1,19.7s2.7,14.4,8.1,19.7c5.4,5.3,11.8,7.9,19.1,7.9
		C651.3,512.1,655.6,510.9,659.5,508.4 M584.1,446.7c4.3,0,8,1.4,11,4.3c3,2.9,4.5,6.4,4.5,10.6c0,4.2-1.5,7.8-4.6,10.6
		c-3.1,2.9-6.9,4.3-11.4,4.3h-20.1v-29.9H584.1z M603.1,478.4c4.5-4.5,6.8-10.1,6.8-16.8c0-6.7-2.3-12.3-6.8-16.8
		c-4.5-4.5-10.1-6.7-16.6-6.7h-28c-1.5,0-2.8,0.5-3.8,1.5c-1,1-1.5,2.3-1.5,3.8v63.1c0,1.5,0.5,2.8,1.5,3.7c1,1,2.2,1.5,3.7,1.5
		s2.7-0.5,3.7-1.5c1-1,1.5-2.2,1.5-3.7v-21.3h22.5C592.9,485.2,598.6,482.9,603.1,478.4"/>
</g>
</svg>
