<?xml version="1.0" encoding="UTF-8"?>
<svg id="Capa_1" data-name="Capa 1" xmlns="http://www.w3.org/2000/svg" viewBox="0 0 1162.98 459.6">
  <defs>
    <style>
      .cls-1 {
        fill: #fff;
        stroke-width: 0px;
      }
    </style>
  </defs>
  <path class="cls-1" d="M479.08,118.01l-15.24,6.21c-.28.14-.56.14-.85.28l-22.44,9.32-32.89,13.41v.14l-9.6,3.95c-1.83.71-2.68,4.38-2.68,4.38-1.13,10.45-8.33,19.06-18.07,22.02,0,0-2.68,1.55-3.11,3.67l-11.86,71.85c-.28,1.83,1.41,3.81,1.41,3.81,3.53,3.53,5.79,8.33,5.79,13.69,0,10.73-8.75,19.48-19.48,19.48s-19.48-8.75-19.48-19.48c0-7.62,4.38-14.12,10.73-17.36,0,0,2.54-1.55,2.82-3.39l11.86-71.42c.42-2.4-1.83-4.94-1.83-4.94-5.93-4.38-9.74-11.15-10.45-18.77,0,0-.56-3.67-3.81-5.22l-101.07-45.59c-2.82-1.27-6.78-.14-6.78-.14h0c-1.41.42-2.96.71-4.66.71-8.75,0-15.95-7.2-15.95-15.95s7.2-15.95,15.95-15.95c6.49,0,12,3.95,14.54,9.46h0s1.69,3.67,4.38,4.94l100.64,45.45c3.67,1.41,6.63-.28,6.63-.28,4.38-3.39,9.88-5.36,15.81-5.36,6.35,0,12.14,2.26,16.66,6.07,0,0,2.96,1.83,4.8.99l44.32-18.35C399.47,46.86,327.63,0,244.77,0,126.2,0,30.21,96.13,30.21,214.56c0,4.09.14,8.19.42,12.28l-24.14,18.21c-.28.14-.42.42-.71.71l-2.26,1.69c-9.32,7.06,1.69,21.74,11.01,14.68l1.98-1.55c.42-.28.85-.42,1.13-.71l84.27-63.52c1.98-1.41,2.4-5.22,2.4-5.22v-.99c0-6.07,2.54-11.57,6.63-15.53,0,0,2.96-3.95,2.68-6.21l-5.93-48.27c-.56-5.08,2.96-9.74,8.05-10.3,5.22-.56,9.74,2.96,10.3,8.05l5.93,47.85c.28,2.82,3.25,5.22,3.25,5.22,3.81,1.98,6.92,4.94,9.03,8.75h0s1.83,2.26,4.8,2.4l100.93,5.65c2.4.14,4.09-1.69,4.09-1.69,4.23-6.92,11.72-11.43,20.33-11.43,13.13,0,23.86,10.73,23.86,23.86s-10.73,23.86-23.86,23.86c-1.83,0-3.53-.28-5.22-.71,0,0-2.54-.14-3.67,1.27l-40.09,46.86c-6.49,7.48-6.92,20.61,5.08,25.83l52.23,23.01c2.96,1.27,8.05,0,8.05,0l-.14.14c1.98-.85,4.09-1.27,6.35-1.27,9.74,0,17.64,7.9,17.64,17.64s-7.9,17.64-17.64,17.64c-7.2,0-13.27-4.38-16.09-10.59v.14s-3.11-5.51-9.32-8.33l-51.1-22.58c-5.36-2.4-11.86.56-11.86.56-3.95,2.4-8.47,3.81-13.41,3.81-14.26,0-25.69-11.57-25.69-25.69,0-3.25.56-6.21,1.69-9.03,0,0,1.69-6.92-1.27-11.15l-40.09-57.73c-.56-.85-2.54-.99-2.54-.99-.56,0-1.13.14-1.55.14-2.96,0-5.65-.56-8.19-1.69,0,0-2.12-.28-3.39.71l-77.07,58.01c9.46,36.56,28.94,69.73,54.49,95.99v84.55c0,3.95,1.55,7.2,4.8,9.18,1.69,1.13,3.81,1.55,5.79,1.55,1.83,0,3.53-.42,5.22-1.27l79.75-37.12c16.52,4.09,39.95,7.76,57.73,7.76,118.57,0,214.56-96.13,214.56-214.56,0-22.44-3.53-44.18-9.88-64.51l20.33-8.47c.42-.14.71-.42,1.13-.56l14.82-6.07c11.01-4.23,4.09-21.17-6.78-16.8M148.22,206.09l37.26,53.78c5.22,7.48,20.19,4.38,25.41-1.83l38.68-44.75c2.96-3.53,1.13-6.78-5.36-7.06l-91.75-5.22c-4.8-.28-6.63,1.41-4.23,5.08"/>
  <path class="cls-1" d="M634.78,212.44h-95.14l-.14-128.03c0-11.15-17.5-11.01-17.5,0l.14,136.78c0,5.65,2.54,8.75,9.03,8.75h103.75c10.87,0,10.87-17.5-.14-17.5M812.07,159.79h0v-75.38c0-11.15-17.5-11.01-17.5,0v77.21c0,68.18-104.17,68.18-104.31,0v-77.21c0-11.15-17.5-11.01-17.5,0v77.35c0,45.31,35.29,68.18,69.73,68.18s69.59-23.01,69.59-68.32v-1.83ZM972.28,152.16c0,29.78-17.64,61.97-53.07,62.11h-45.31l-.14-122.95h45.31c35.57,0,53.22,31.2,53.22,60.84M989.5,152.16c0-37.55-23.43-75.94-70.44-75.94h-51.38c-5.93,0-10.87,4.52-10.87,9.88l.14,133.25c0,5.36,4.94,10.16,10.87,10.16h51.38c47,0,70.44-39.81,70.3-77.35M1119.65,173.06h-70.15l.85-1.83h0l34.16-67.19,34.16,67.19h0l.99,1.83ZM1161.85,217.52l-34.58-68.04h0l-35.01-68.74c-1.69-3.39-4.8-4.66-7.76-4.52-2.96-.14-5.93,1.13-7.76,4.52l-35.01,68.74h0l-34.58,68.04c-5.08,9.88,10.59,17.79,15.53,7.9l17.79-34.87h87.94l17.79,35.01c5.08,9.74,20.61,1.84,15.67-8.05"/>
  <path class="cls-1" d="M1153.24,353.59c6.49-3.81,9.74-9.32,9.74-16.66,0-2.82-.56-5.51-1.69-7.76s-2.68-4.23-4.38-5.65c-1.69-1.41-4.09-2.82-6.92-4.09s-5.65-2.12-8.05-2.82c-2.54-.71-5.65-1.41-9.32-2.12-2.54-.56-4.52-.85-5.79-1.13-1.27-.28-2.96-.71-5.08-1.27s-3.81-1.13-4.8-1.69c-1.13-.56-2.26-1.27-3.39-2.12-1.27-.85-2.12-1.69-2.54-2.68-.56-.99-.71-2.12-.71-3.53,0-3.25,1.69-5.79,4.94-7.34,3.25-1.55,7.34-2.4,12.42-2.4,5.51,0,13.97,1.55,25.13,4.52,2.12.71,3.81.42,4.94-.85s1.69-2.68,1.69-4.23c0-2.4-1.69-4.38-5.22-6.07-6.78-3.11-15.39-4.66-25.97-4.66s-18.77,1.83-24.84,5.65c-5.93,3.67-8.89,9.03-8.89,15.81,0,2.82.56,5.36,1.69,7.62,1.13,2.26,2.54,4.09,4.09,5.65,1.55,1.55,3.81,2.82,6.49,4.09,2.68,1.27,5.22,2.12,7.48,2.82,2.4.71,5.08,1.41,8.19,2.12.71.14,1.83.42,3.25.71,2.26.56,3.95.85,5.22,1.13,1.13.28,2.68.71,4.66,1.27,1.98.56,3.39,1.13,4.38,1.55.99.56,2.12,1.13,3.25,1.83s1.98,1.69,2.4,2.68c.56.99.85,2.12.85,3.39,0,3.25-1.83,5.65-5.51,7.34-3.67,1.69-8.05,2.4-13.27,2.4-1.41,0-2.68-.14-4.09-.28s-2.68-.28-3.95-.42c-1.13-.14-2.68-.42-4.52-.71-1.83-.28-3.11-.56-4.09-.85-.99-.14-2.54-.56-4.66-.99-2.26-.42-3.67-.71-4.66-.99-1.98-.42-3.53,0-4.94,1.27-1.27,1.27-1.98,2.68-1.98,4.66,0,2.54,1.55,4.52,4.66,5.93,2.82,1.41,7.06,2.4,12.42,3.25,5.36.71,10.45,1.13,15.39,1.13,10.73.14,19.48-1.69,25.97-5.5M1052.74,351.05v-27.95c0-7.76,2.12-14.26,6.35-19.48,4.23-5.22,9.74-8.47,16.52-9.6,4.23-.85,6.49-3.25,6.49-7.48,0-1.69-.56-2.96-1.69-4.09s-2.68-1.69-4.66-1.55c-5.36.14-10.45,2.26-14.82,6.35-4.52,4.09-7.34,9.32-8.75,15.67h-.14v-15.24c0-1.69-.71-3.25-1.98-4.52-1.27-1.27-2.96-1.83-4.8-1.83-1.98,0-3.53.71-4.94,2.12s-2.12,2.96-2.12,4.8v62.96c0,1.98.71,3.81,2.12,5.22s3.11,2.12,5.08,2.12,3.67-.71,5.22-2.12c1.41-1.69,2.12-3.39,2.12-5.36M963.67,298.54c4.52-3.67,10.3-5.36,17.36-5.36,6.49,0,11.86,1.69,16.09,5.22,4.23,3.53,7.2,8.33,8.75,14.26h-50.82c1.27-5.79,4.23-10.45,8.61-14.12M1008.27,291.63c-7.62-7.2-16.66-10.73-27.24-10.73-12,0-21.88,3.81-29.5,11.29-7.62,7.48-11.43,16.66-11.43,27.53s3.95,20.47,11.86,27.95c7.9,7.48,17.5,11.15,29.08,11.15,6.78,0,13.13-1.27,18.91-3.95,5.79-2.68,10.45-6.07,13.83-10.45,1.41-1.69,1.98-3.53,1.98-5.51,0-1.83-.56-3.39-1.83-4.52-1.27-1.13-2.82-1.69-4.8-1.69s-4.09,1.41-6.07,4.09c-5.36,6.49-12.42,9.74-21.31,9.74-6.92,0-12.85-1.98-17.79-5.93-4.94-3.95-7.9-9.18-9.18-15.81h55.19c2.68,0,4.94-.85,6.78-2.54,1.83-1.69,2.82-3.81,2.82-6.49.14-9.03-3.67-17.08-11.29-24.14M863.03,350.91v-32.04c0-6.78,2.26-12.7,6.63-17.64,4.38-4.94,9.6-7.34,15.81-7.34s11.86,2.4,16.09,7.06,6.35,10.45,6.35,17.22v32.75c0,2.12.71,3.95,2.12,5.22,1.41,1.41,3.11,2.12,5.22,2.12s3.81-.71,5.22-2.12,2.12-3.11,2.12-5.22v-34.16c0-10.16-3.11-18.63-9.18-25.55-6.07-6.92-14.12-10.3-24-10.3-6.07,0-11.43,1.83-16.37,5.36-4.94,3.67-8.33,8.47-10.45,14.68h-.14v-13.41c0-1.83-.71-3.25-1.98-4.23s-2.96-1.55-4.94-1.55c-2.12,0-3.81.56-5.08,1.83-1.27,1.27-1.83,2.82-1.83,4.94v62.39c0,2.12.71,3.95,2.12,5.22,1.41,1.41,3.11,2.12,5.22,2.12s3.81-.71,5.22-2.12c1.13-1.41,1.83-3.11,1.83-5.22M817.57,346.53c-5.22,0-9.18-1.55-11.86-4.8-2.68-3.25-3.95-7.34-3.95-12.28v-35.29h22.87c1.69,0,3.11-.56,4.23-1.69,1.13-1.13,1.69-2.54,1.69-4.09s-.56-2.96-1.69-4.09-2.54-1.69-4.23-1.69h-22.87v-13.97c0-1.98-.71-3.81-2.12-5.22s-3.11-2.12-5.08-2.12-3.67.71-5.22,2.12c-1.41,1.41-2.12,3.11-2.12,5.22v13.97h-10.45c-1.69,0-2.96.56-4.09,1.69-1.13,1.13-1.69,2.54-1.69,4.09s.56,2.96,1.69,4.09,2.54,1.69,4.09,1.69h10.45v36.42c0,8.05,2.54,14.68,7.62,19.9,5.08,5.36,12.14,7.9,21.03,7.9,2.96,0,6.21-.56,9.6-1.41,1.69-.56,2.96-1.27,3.95-2.4.99-1.13,1.55-2.4,1.55-3.95,0-1.83-.71-3.39-1.98-4.52-1.27-1.13-3.11-1.55-5.22-.99-3.11.99-5.22,1.41-6.21,1.41M737.12,351.05v-27.95c0-7.76,2.12-14.26,6.35-19.48,4.23-5.22,9.74-8.47,16.52-9.6,4.23-.85,6.49-3.25,6.49-7.48,0-1.69-.56-2.96-1.69-4.09s-2.68-1.69-4.66-1.55c-5.51.14-10.45,2.26-14.82,6.35-4.52,4.09-7.34,9.32-8.75,15.67h-.14v-15.24c0-1.69-.71-3.25-1.98-4.52-1.27-1.27-2.96-1.83-4.8-1.83-1.98,0-3.67.71-4.94,2.12s-2.12,2.96-2.12,4.8v62.96c0,1.98.71,3.81,2.12,5.22s3.11,2.12,5.08,2.12,3.67-.71,5.22-2.12c1.41-1.69,2.12-3.39,2.12-5.36M630.26,319.72c0-7.2,2.54-13.27,7.62-18.35,5.08-5.08,11.29-7.62,18.49-7.62s13.41,2.54,18.49,7.62c5.08,5.08,7.62,11.15,7.62,18.35s-2.54,13.41-7.62,18.49c-5.08,5.08-11.29,7.62-18.49,7.62s-13.41-2.54-18.49-7.62c-5.08-5.08-7.62-11.29-7.62-18.49M672.18,353.45c5.51-3.53,9.18-7.9,11.29-13.55l.28,13.55c.14,1.41.85,2.4,2.12,3.25,1.13.85,2.68,1.27,4.66,1.27,2.12,0,3.81-.71,5.08-2.12,1.13-1.41,1.83-3.11,1.83-5.22v-62.25c0-1.98-.71-3.81-1.98-5.22s-2.96-2.12-4.8-2.12-3.25.42-4.52,1.27-1.98,1.98-2.12,3.39l-.28,13.55c-2.12-5.51-5.93-10.02-11.29-13.55s-11.43-5.22-18.07-5.22c-10.16,0-19.2,3.67-26.82,11.15-7.62,7.48-11.43,16.66-11.43,27.81s3.81,20.33,11.43,27.81c7.62,7.48,16.66,11.15,26.96,11.15,6.07.28,12.14-1.41,17.64-4.94M565.75,266.36c6.07,0,11.29,1.98,15.53,6.07,4.23,4.09,6.35,9.03,6.35,14.96s-2.12,11.01-6.49,14.96c-4.38,4.09-9.74,6.07-16.09,6.07h-28.37v-42.21h29.08v.14ZM592.57,311.11c6.35-6.35,9.6-14.26,9.6-23.71s-3.25-17.36-9.6-23.71c-6.35-6.35-14.26-9.46-23.43-9.46h-39.52c-2.12,0-3.95.71-5.36,2.12s-2.12,3.25-2.12,5.36v89.07c0,2.12.71,3.95,2.12,5.22,1.41,1.41,3.11,2.12,5.22,2.12s3.81-.71,5.22-2.12,2.12-3.11,2.12-5.22v-30.07h31.76c9.6,0,17.64-3.25,24-9.6"/>
</svg>